<svg xmlns="http://www.w3.org/2000/svg" width="240" height="100" viewBox="0 0 240 100"><g fill="#557fff"><circle cx="0" cy="60" r="0.33"/><circle cx="0" cy="66" r="0.63"/><circle cx="0" cy="72" r="0.99"/><circle cx="0" cy="78" r="1.34"/><circle cx="0" cy="84" r="1.54"/><circle cx="0" cy="90" r="1.49"/><circle cx="0" cy="96" r="1.24"/><circle cx="6" cy="54" r="0.17"/><circle cx="6" cy="60" r="0.36"/><circle cx="6" cy="66" r="0.66"/><circle cx="6" cy="72" r="1.03"/><circle cx="6" cy="78" r="1.37"/><circle cx="6" cy="84" r="1.54"/><circle cx="6" cy="90" r="1.48"/><circle cx="6" cy="96" r="1.20"/><circle cx="12" cy="54" r="0.18"/><circle cx="12" cy="60" r="0.39"/><circle cx="12" cy="66" r="0.70"/><circle cx="12" cy="72" r="1.07"/><circle cx="12" cy="78" r="1.40"/><circle cx="12" cy="84" r="1.55"/><circle cx="12" cy="90" r="1.46"/><circle cx="12" cy="96" r="1.16"/><circle cx="18" cy="54" r="0.20"/><circle cx="18" cy="60" r="0.42"/><circle cx="18" cy="66" r="0.74"/><circle cx="18" cy="72" r="1.11"/><circle cx="18" cy="78" r="1.42"/><circle cx="18" cy="84" r="1.55"/><circle cx="18" cy="90" r="1.43"/><circle cx="18" cy="96" r="1.12"/><circle cx="24" cy="54" r="0.22"/><circle cx="24" cy="60" r="0.45"/><circle cx="24" cy="66" r="0.78"/><circle cx="24" cy="72" r="1.15"/><circle cx="24" cy="78" r="1.45"/><circle cx="24" cy="84" r="1.55"/><circle cx="24" cy="90" r="1.40"/><circle cx="24" cy="96" r="1.08"/><circle cx="30" cy="54" r="0.24"/><circle cx="30" cy="60" r="0.49"/><circle cx="30" cy="66" r="0.83"/><circle cx="30" cy="72" r="1.20"/><circle cx="30" cy="78" r="1.48"/><circle cx="30" cy="84" r="1.54"/><circle cx="30" cy="90" r="1.37"/><circle cx="30" cy="96" r="1.03"/><circle cx="36" cy="54" r="0.27"/><circle cx="36" cy="60" r="0.53"/><circle cx="36" cy="66" r="0.88"/><circle cx="36" cy="72" r="1.25"/><circle cx="36" cy="78" r="1.50"/><circle cx="36" cy="84" r="1.53"/><circle cx="36" cy="90" r="1.33"/><circle cx="36" cy="96" r="0.98"/><circle cx="42" cy="54" r="0.30"/><circle cx="42" cy="60" r="0.58"/><circle cx="42" cy="66" r="0.94"/><circle cx="42" cy="72" r="1.30"/><circle cx="42" cy="78" r="1.52"/><circle cx="42" cy="84" r="1.51"/><circle cx="42" cy="90" r="1.28"/><circle cx="42" cy="96" r="0.92"/><circle cx="48" cy="54" r="0.35"/><circle cx="48" cy="60" r="0.64"/><circle cx="48" cy="66" r="1.01"/><circle cx="48" cy="72" r="1.35"/><circle cx="48" cy="78" r="1.54"/><circle cx="48" cy="84" r="1.49"/><circle cx="48" cy="90" r="1.22"/><circle cx="48" cy="96" r="0.85"/><circle cx="54" cy="48" r="0.19"/><circle cx="54" cy="54" r="0.40"/><circle cx="54" cy="60" r="0.71"/><circle cx="54" cy="66" r="1.08"/><circle cx="54" cy="72" r="1.41"/><circle cx="54" cy="78" r="1.55"/><circle cx="54" cy="84" r="1.45"/><circle cx="54" cy="90" r="1.15"/><circle cx="54" cy="96" r="0.78"/><circle cx="60" cy="48" r="0.22"/><circle cx="60" cy="54" r="0.45"/><circle cx="60" cy="60" r="0.79"/><circle cx="60" cy="66" r="1.16"/><circle cx="60" cy="72" r="1.46"/><circle cx="60" cy="78" r="1.55"/><circle cx="60" cy="84" r="1.40"/><circle cx="60" cy="90" r="1.07"/><circle cx="60" cy="96" r="0.70"/><circle cx="66" cy="48" r="0.27"/><circle cx="66" cy="54" r="0.53"/><circle cx="66" cy="60" r="0.88"/><circle cx="66" cy="66" r="1.25"/><circle cx="66" cy="72" r="1.50"/><circle cx="66" cy="78" r="1.53"/><circle cx="66" cy="84" r="1.33"/><circle cx="66" cy="90" r="0.98"/><circle cx="66" cy="96" r="0.62"/><circle cx="72" cy="48" r="0.32"/><circle cx="72" cy="54" r="0.61"/><circle cx="72" cy="60" r="0.98"/><circle cx="72" cy="66" r="1.33"/><circle cx="72" cy="72" r="1.53"/><circle cx="72" cy="78" r="1.50"/><circle cx="72" cy="84" r="1.25"/><circle cx="72" cy="90" r="0.88"/><circle cx="72" cy="96" r="0.53"/><circle cx="78" cy="42" r="0.19"/><circle cx="78" cy="48" r="0.39"/><circle cx="78" cy="54" r="0.71"/><circle cx="78" cy="60" r="1.08"/><circle cx="78" cy="66" r="1.41"/><circle cx="78" cy="72" r="1.55"/><circle cx="78" cy="78" r="1.45"/><circle cx="78" cy="84" r="1.15"/><circle cx="78" cy="90" r="0.78"/><circle cx="78" cy="96" r="0.45"/><circle cx="84" cy="42" r="0.24"/><circle cx="84" cy="48" r="0.48"/><circle cx="84" cy="54" r="0.82"/><circle cx="84" cy="60" r="1.19"/><circle cx="84" cy="66" r="1.47"/><circle cx="84" cy="72" r="1.54"/><circle cx="84" cy="78" r="1.38"/><circle cx="84" cy="84" r="1.04"/><circle cx="84" cy="90" r="0.67"/><circle cx="84" cy="96" r="0.37"/><circle cx="90" cy="42" r="0.30"/><circle cx="90" cy="48" r="0.58"/><circle cx="90" cy="54" r="0.94"/><circle cx="90" cy="60" r="1.30"/><circle cx="90" cy="66" r="1.52"/><circle cx="90" cy="72" r="1.51"/><circle cx="90" cy="78" r="1.28"/><circle cx="90" cy="84" r="0.92"/><circle cx="90" cy="90" r="0.56"/><circle cx="90" cy="96" r="0.29"/><circle cx="96" cy="36" r="0.18"/><circle cx="96" cy="42" r="0.39"/><circle cx="96" cy="48" r="0.70"/><circle cx="96" cy="54" r="1.07"/><circle cx="96" cy="60" r="1.40"/><circle cx="96" cy="66" r="1.55"/><circle cx="96" cy="72" r="1.46"/><circle cx="96" cy="78" r="1.16"/><circle cx="96" cy="84" r="0.79"/><circle cx="96" cy="90" r="0.46"/><circle cx="96" cy="96" r="0.22"/><circle cx="102" cy="36" r="0.24"/><circle cx="102" cy="42" r="0.49"/><circle cx="102" cy="48" r="0.83"/><circle cx="102" cy="54" r="1.20"/><circle cx="102" cy="60" r="1.48"/><circle cx="102" cy="66" r="1.54"/><circle cx="102" cy="72" r="1.37"/><circle cx="102" cy="78" r="1.03"/><circle cx="102" cy="84" r="0.66"/><circle cx="102" cy="90" r="0.36"/><circle cx="102" cy="96" r="0.17"/><circle cx="108" cy="36" r="0.32"/><circle cx="108" cy="42" r="0.61"/><circle cx="108" cy="48" r="0.97"/><circle cx="108" cy="54" r="1.32"/><circle cx="108" cy="60" r="1.53"/><circle cx="108" cy="66" r="1.50"/><circle cx="108" cy="72" r="1.26"/><circle cx="108" cy="78" r="0.89"/><circle cx="108" cy="84" r="0.54"/><circle cx="108" cy="90" r="0.27"/><circle cx="114" cy="30" r="0.20"/><circle cx="114" cy="36" r="0.42"/><circle cx="114" cy="42" r="0.74"/><circle cx="114" cy="48" r="1.12"/><circle cx="114" cy="54" r="1.43"/><circle cx="114" cy="60" r="1.55"/><circle cx="114" cy="66" r="1.43"/><circle cx="114" cy="72" r="1.12"/><circle cx="114" cy="78" r="0.74"/><circle cx="114" cy="84" r="0.42"/><circle cx="114" cy="90" r="0.20"/><circle cx="120" cy="30" r="0.27"/><circle cx="120" cy="36" r="0.54"/><circle cx="120" cy="42" r="0.89"/><circle cx="120" cy="48" r="1.26"/><circle cx="120" cy="54" r="1.50"/><circle cx="120" cy="60" r="1.53"/><circle cx="120" cy="66" r="1.32"/><circle cx="120" cy="72" r="0.97"/><circle cx="120" cy="78" r="0.60"/><circle cx="120" cy="84" r="0.32"/><circle cx="126" cy="24" r="0.17"/><circle cx="126" cy="30" r="0.37"/><circle cx="126" cy="36" r="0.67"/><circle cx="126" cy="42" r="1.05"/><circle cx="126" cy="48" r="1.38"/><circle cx="126" cy="54" r="1.55"/><circle cx="126" cy="60" r="1.47"/><circle cx="126" cy="66" r="1.19"/><circle cx="126" cy="72" r="0.81"/><circle cx="126" cy="78" r="0.47"/><circle cx="126" cy="84" r="0.24"/><circle cx="132" cy="24" r="0.24"/><circle cx="132" cy="30" r="0.48"/><circle cx="132" cy="36" r="0.83"/><circle cx="132" cy="42" r="1.20"/><circle cx="132" cy="48" r="1.48"/><circle cx="132" cy="54" r="1.54"/><circle cx="132" cy="60" r="1.37"/><circle cx="132" cy="66" r="1.04"/><circle cx="132" cy="72" r="0.66"/><circle cx="132" cy="78" r="0.36"/><circle cx="132" cy="84" r="0.17"/><circle cx="138" cy="24" r="0.33"/><circle cx="138" cy="30" r="0.62"/><circle cx="138" cy="36" r="0.98"/><circle cx="138" cy="42" r="1.33"/><circle cx="138" cy="48" r="1.53"/><circle cx="138" cy="54" r="1.50"/><circle cx="138" cy="60" r="1.24"/><circle cx="138" cy="66" r="0.88"/><circle cx="138" cy="72" r="0.53"/><circle cx="138" cy="78" r="0.27"/><circle cx="144" cy="18" r="0.21"/><circle cx="144" cy="24" r="0.44"/><circle cx="144" cy="30" r="0.77"/><circle cx="144" cy="36" r="1.14"/><circle cx="144" cy="42" r="1.44"/><circle cx="144" cy="48" r="1.55"/><circle cx="144" cy="54" r="1.41"/><circle cx="144" cy="60" r="1.10"/><circle cx="144" cy="66" r="0.72"/><circle cx="144" cy="72" r="0.40"/><circle cx="144" cy="78" r="0.19"/><circle cx="150" cy="18" r="0.29"/><circle cx="150" cy="24" r="0.56"/><circle cx="150" cy="30" r="0.92"/><circle cx="150" cy="36" r="1.28"/><circle cx="150" cy="42" r="1.52"/><circle cx="150" cy="48" r="1.52"/><circle cx="150" cy="54" r="1.30"/><circle cx="150" cy="60" r="0.94"/><circle cx="150" cy="66" r="0.58"/><circle cx="150" cy="72" r="0.30"/><circle cx="156" cy="12" r="0.18"/><circle cx="156" cy="18" r="0.39"/><circle cx="156" cy="24" r="0.70"/><circle cx="156" cy="30" r="1.08"/><circle cx="156" cy="36" r="1.40"/><circle cx="156" cy="42" r="1.55"/><circle cx="156" cy="48" r="1.45"/><circle cx="156" cy="54" r="1.16"/><circle cx="156" cy="60" r="0.79"/><circle cx="156" cy="66" r="0.45"/><circle cx="156" cy="72" r="0.22"/><circle cx="162" cy="12" r="0.25"/><circle cx="162" cy="18" r="0.50"/><circle cx="162" cy="24" r="0.85"/><circle cx="162" cy="30" r="1.22"/><circle cx="162" cy="36" r="1.49"/><circle cx="162" cy="42" r="1.54"/><circle cx="162" cy="48" r="1.35"/><circle cx="162" cy="54" r="1.01"/><circle cx="162" cy="60" r="0.64"/><circle cx="162" cy="66" r="0.35"/><circle cx="168" cy="12" r="0.34"/><circle cx="168" cy="18" r="0.63"/><circle cx="168" cy="24" r="1.00"/><circle cx="168" cy="30" r="1.34"/><circle cx="168" cy="36" r="1.54"/><circle cx="168" cy="42" r="1.49"/><circle cx="168" cy="48" r="1.23"/><circle cx="168" cy="54" r="0.86"/><circle cx="168" cy="60" r="0.51"/><circle cx="168" cy="66" r="0.26"/><circle cx="174" cy="6" r="0.21"/><circle cx="174" cy="12" r="0.43"/><circle cx="174" cy="18" r="0.76"/><circle cx="174" cy="24" r="1.14"/><circle cx="174" cy="30" r="1.44"/><circle cx="174" cy="36" r="1.55"/><circle cx="174" cy="42" r="1.42"/><circle cx="174" cy="48" r="1.10"/><circle cx="174" cy="54" r="0.72"/><circle cx="174" cy="60" r="0.41"/><circle cx="174" cy="66" r="0.19"/><circle cx="180" cy="6" r="0.28"/><circle cx="180" cy="12" r="0.54"/><circle cx="180" cy="18" r="0.90"/><circle cx="180" cy="24" r="1.26"/><circle cx="180" cy="30" r="1.51"/><circle cx="180" cy="36" r="1.53"/><circle cx="180" cy="42" r="1.32"/><circle cx="180" cy="48" r="0.96"/><circle cx="180" cy="54" r="0.60"/><circle cx="180" cy="60" r="0.32"/><circle cx="186" cy="0" r="0.16"/><circle cx="186" cy="6" r="0.36"/><circle cx="186" cy="12" r="0.66"/><circle cx="186" cy="18" r="1.03"/><circle cx="186" cy="24" r="1.37"/><circle cx="186" cy="30" r="1.54"/><circle cx="186" cy="36" r="1.48"/><circle cx="186" cy="42" r="1.20"/><circle cx="186" cy="48" r="0.83"/><circle cx="186" cy="54" r="0.49"/><circle cx="186" cy="60" r="0.24"/><circle cx="192" cy="0" r="0.22"/><circle cx="192" cy="6" r="0.44"/><circle cx="192" cy="12" r="0.77"/><circle cx="192" cy="18" r="1.15"/><circle cx="192" cy="24" r="1.45"/><circle cx="192" cy="30" r="1.55"/><circle cx="192" cy="36" r="1.41"/><circle cx="192" cy="42" r="1.09"/><circle cx="192" cy="48" r="0.71"/><circle cx="192" cy="54" r="0.40"/><circle cx="192" cy="60" r="0.19"/><circle cx="198" cy="0" r="0.27"/><circle cx="198" cy="6" r="0.53"/><circle cx="198" cy="12" r="0.89"/><circle cx="198" cy="18" r="1.25"/><circle cx="198" cy="24" r="1.50"/><circle cx="198" cy="30" r="1.53"/><circle cx="198" cy="36" r="1.32"/><circle cx="198" cy="42" r="0.97"/><circle cx="198" cy="48" r="0.61"/><circle cx="198" cy="54" r="0.32"/><circle cx="204" cy="0" r="0.34"/><circle cx="204" cy="6" r="0.63"/><circle cx="204" cy="12" r="1.00"/><circle cx="204" cy="18" r="1.34"/><circle cx="204" cy="24" r="1.54"/><circle cx="204" cy="30" r="1.49"/><circle cx="204" cy="36" r="1.23"/><circle cx="204" cy="42" r="0.87"/><circle cx="204" cy="48" r="0.52"/><circle cx="204" cy="54" r="0.26"/><circle cx="210" cy="0" r="0.40"/><circle cx="210" cy="6" r="0.72"/><circle cx="210" cy="12" r="1.09"/><circle cx="210" cy="18" r="1.41"/><circle cx="210" cy="24" r="1.55"/><circle cx="210" cy="30" r="1.44"/><circle cx="210" cy="36" r="1.14"/><circle cx="210" cy="42" r="0.77"/><circle cx="210" cy="48" r="0.44"/><circle cx="210" cy="54" r="0.21"/><circle cx="216" cy="0" r="0.47"/><circle cx="216" cy="6" r="0.81"/><circle cx="216" cy="12" r="1.18"/><circle cx="216" cy="18" r="1.47"/><circle cx="216" cy="24" r="1.55"/><circle cx="216" cy="30" r="1.39"/><circle cx="216" cy="36" r="1.06"/><circle cx="216" cy="42" r="0.68"/><circle cx="216" cy="48" r="0.37"/><circle cx="216" cy="54" r="0.17"/><circle cx="222" cy="0" r="0.53"/><circle cx="222" cy="6" r="0.89"/><circle cx="222" cy="12" r="1.25"/><circle cx="222" cy="18" r="1.50"/><circle cx="222" cy="24" r="1.53"/><circle cx="222" cy="30" r="1.32"/><circle cx="222" cy="36" r="0.97"/><circle cx="222" cy="42" r="0.61"/><circle cx="222" cy="48" r="0.32"/><circle cx="228" cy="0" r="0.60"/><circle cx="228" cy="6" r="0.96"/><circle cx="228" cy="12" r="1.32"/><circle cx="228" cy="18" r="1.53"/><circle cx="228" cy="24" r="1.51"/><circle cx="228" cy="30" r="1.26"/><circle cx="228" cy="36" r="0.90"/><circle cx="228" cy="42" r="0.54"/><circle cx="228" cy="48" r="0.28"/><circle cx="234" cy="0" r="0.66"/><circle cx="234" cy="6" r="1.03"/><circle cx="234" cy="12" r="1.37"/><circle cx="234" cy="18" r="1.54"/><circle cx="234" cy="24" r="1.48"/><circle cx="234" cy="30" r="1.20"/><circle cx="234" cy="36" r="0.83"/><circle cx="234" cy="42" r="0.49"/><circle cx="234" cy="48" r="0.24"/><circle cx="240" cy="0" r="0.72"/><circle cx="240" cy="6" r="1.09"/><circle cx="240" cy="12" r="1.41"/><circle cx="240" cy="18" r="1.55"/><circle cx="240" cy="24" r="1.45"/><circle cx="240" cy="30" r="1.14"/><circle cx="240" cy="36" r="0.77"/><circle cx="240" cy="42" r="0.44"/><circle cx="240" cy="48" r="0.21"/></g></svg>